<?xml version="1.0" standalone="no"?>
<!DOCTYPE svg PUBLIC "-//W3C//DTD SVG 20010904//EN"
 "http://www.w3.org/TR/2001/REC-SVG-20010904/DTD/svg10.dtd">
<svg version="1.0" xmlns="http://www.w3.org/2000/svg"
 width="666.000000pt" height="375.000000pt" viewBox="0 0 666.000000 375.000000"
 preserveAspectRatio="xMidYMid meet">

<g transform="translate(0.000000,375.000000) scale(0.100000,-0.100000)"
fill="#000000" stroke="none">
<path d="M3110 3714 c-354 -53 -666 -184 -915 -382 -583 -465 -832 -1197 -650
-1912 81 -317 249 -614 480 -846 273 -274 574 -433 985 -521 69 -15 130 -18
325 -18 225 1 248 3 365 29 165 36 279 75 425 145 438 210 783 592 940 1042
150 429 149 834 -2 1254 -179 497 -586 910 -1086 1101 -212 81 -406 114 -656
113 -102 -1 -197 -3 -211 -5z m464 -883 c92 -33 165 -80 244 -159 123 -123
189 -242 221 -400 16 -77 14 -288 -4 -374 -16 -78 -78 -213 -143 -314 -58 -89
-176 -219 -246 -272 -149 -111 -335 -166 -477 -142 -108 18 -232 85 -324 175
-128 126 -160 215 -160 455 1 152 3 172 29 255 30 99 91 234 136 305 16 25 42
82 58 127 69 190 201 324 353 358 89 20 237 14 313 -14z"/>
<path d="M3297 2760 c-53 -9 -99 -34 -163 -87 -42 -34 -91 -99 -82 -109 3 -2
21 2 41 11 50 21 137 29 170 16 57 -22 23 -53 -98 -89 -84 -25 -179 -102 -190
-153 -4 -18 1 -106 10 -198 18 -162 15 -281 -6 -281 -27 0 -71 142 -84 273 -4
37 -11 67 -15 67 -13 0 -68 -152 -85 -237 -25 -122 -28 -190 -11 -291 31 -187
104 -286 271 -369 89 -44 145 -57 229 -50 135 10 269 80 389 202 82 83 163
196 216 302 104 205 88 532 -34 714 -89 131 -178 208 -297 257 -70 28 -177 37
-261 22z m122 -310 c36 -19 36 -61 0 -81 -44 -23 -85 55 -41 80 21 13 20 13
41 1z m273 -113 c24 -38 19 -281 -9 -387 -15 -59 -107 -248 -152 -314 -37 -54
-95 -83 -208 -106 -150 -31 -216 -35 -236 -15 -41 40 -5 70 103 85 112 16 200
38 235 60 33 20 100 137 149 260 32 79 49 223 40 336 -5 73 -4 83 12 93 20 11
55 5 66 -12z m-692 -587 c11 -11 20 -24 20 -30 0 -5 -9 -19 -20 -30 -11 -11
-24 -20 -30 -20 -5 0 -19 9 -30 20 -11 11 -20 25 -20 30 0 6 9 19 20 30 11 11
25 20 30 20 6 0 19 -9 30 -20z"/>
</g>
</svg>
